<?xml version="1.0" standalone="no"?>
<!DOCTYPE svg PUBLIC "-//W3C//DTD SVG 20010904//EN"
 "http://www.w3.org/TR/2001/REC-SVG-20010904/DTD/svg10.dtd">
<svg version="1.0" xmlns="http://www.w3.org/2000/svg"
 width="118.000000pt" height="122.000000pt" viewBox="0 0 118.000000 122.000000"
 preserveAspectRatio="xMidYMid meet">
<metadata>
Created by potrace 1.16, written by Peter Selinger 2001-2019
</metadata>
<g transform="translate(0.000000,122.000000) scale(0.100000,-0.100000)"
fill="#000000" stroke="none">
<path d="M276 991 c-70 -71 -124 -131 -120 -134 5 -2 132 -40 282 -83 l273
-77 115 114 114 114 0 -243 c0 -187 -3 -242 -12 -242 -7 0 -58 14 -113 30 -55
16 -101 30 -102 30 -11 1 0 -29 12 -34 12 -4 15 -31 15 -153 l0 -148 115 115
115 115 -2 284 -3 284 -275 78 c-151 44 -277 79 -280 79 -3 0 -63 -58 -134
-129z m627 -50 c4 -4 -39 -53 -96 -109 l-104 -102 -69 20 c-38 11 -97 28 -131
37 l-63 17 0 137 0 136 228 -64 c125 -36 230 -68 235 -72z m-498 -119 c-3 -3
-22 0 -42 6 -21 6 -64 18 -97 27 l-58 17 98 99 99 99 3 -121 c1 -67 0 -124 -3
-127z"/>
</g>
</svg>
